<?xml version="1.0" encoding="UTF-8" standalone="no"?>
<svg
   xmlns:dc="http://purl.org/dc/elements/1.1/"
   xmlns:cc="http://creativecommons.org/ns#"
   xmlns:rdf="http://www.w3.org/1999/02/22-rdf-syntax-ns#"
   xmlns:svg="http://www.w3.org/2000/svg"
   xmlns="http://www.w3.org/2000/svg"
   xmlns:sodipodi="http://sodipodi.sourceforge.net/DTD/sodipodi-0.dtd"
   xmlns:inkscape="http://www.inkscape.org/namespaces/inkscape"
   width="17.645586"
   height="16"
   id="svg2"
   version="1.1"
   inkscape:version="0.91 r13725"
   sodipodi:docname="clarity-bot.svg">
  <metadata
     id="metadata34">
    <rdf:RDF>
      <cc:Work
         rdf:about="">
        <dc:format>image/svg+xml</dc:format>
        <dc:type
           rdf:resource="http://purl.org/dc/dcmitype/StillImage" />
        <dc:title></dc:title>
      </cc:Work>
    </rdf:RDF>
  </metadata>
  <defs
     id="defs32" />
  <sodipodi:namedview
     pagecolor="#ffffff"
     bordercolor="#666666"
     borderopacity="1"
     objecttolerance="10"
     gridtolerance="10"
     guidetolerance="10"
     inkscape:pageopacity="0"
     inkscape:pageshadow="2"
     inkscape:window-width="1860"
     inkscape:window-height="1059"
     id="namedview30"
     showgrid="false"
     inkscape:zoom="6.6769428"
     inkscape:cx="47.600606"
     inkscape:cy="19.930746"
     inkscape:window-x="60"
     inkscape:window-y="21"
     inkscape:window-maximized="1"
     inkscape:current-layer="svg2"
     fit-margin-top="0"
     fit-margin-left="0"
     fit-margin-right="0"
     fit-margin-bottom="0" />
  <linearGradient
     id="b"
     x2="0"
     y2="49.396355"
     gradientTransform="scale(2.4698178,0.40488817)"
     x1="0"
     y1="0"
     gradientUnits="userSpaceOnUse">
    <stop
       offset="0"
       stop-color="#bbb"
       stop-opacity=".1"
       id="stop5" />
    <stop
       offset="1"
       stop-opacity=".1"
       id="stop7" />
  </linearGradient>
  <mask
     id="a">
    <rect
       width="122"
       height="20"
       rx="3"
       id="rect10"
       x="0"
       y="0"
       style="fill:#ffffff" />
  </mask>
  <g
     style="fill:#000000"
     transform="matrix(0.19606642,0,0,0.19606642,-0.9803321,-1.8034189)"
     name="symbol"
     rel="mainfill"
     id="SvgjsG1009">
    <g
       style="display:none"
       id="g11"
       display="none">
      <path
         style="display:inline"
         d="m -987.87903,-285.155 1286.93604,0 0,912.422 -1286.93604,0 z"
         id="rect13"
         inkscape:connector-curvature="0" />
    </g>
    <g
       id="g15">
      <g
         id="g17">
        <path
           inkscape:connector-curvature="0"
           id="path19"
           d="m 39.243,49.502 1.133,0 c 0.695,0 1.26,-0.565 1.26,-1.259 l 0,-8.338 c 0,-0.694 -0.565,-1.26 -1.26,-1.26 l -1.133,0 c -0.695,0 -1.26,0.565 -1.26,1.26 l 0,8.338 c 0,0.694 0.565,1.259 1.26,1.259 z" />
        <path
           inkscape:connector-curvature="0"
           id="path21"
           d="m 49.798,49.502 1.134,0 c 0.694,0 1.259,-0.565 1.259,-1.259 l 0,-8.338 c 0,-0.694 -0.565,-1.26 -1.259,-1.26 l -1.134,0 c -0.694,0 -1.259,0.565 -1.259,1.26 l 0,8.338 c 0,0.694 0.565,1.259 1.259,1.259 z" />
        <path
           inkscape:connector-curvature="0"
           id="path23"
           d="m 57.29,56.532 c 2.608,0 4.729,-2.121 4.729,-4.728 l 0,-15.46 c 0,-2.607 -2.121,-4.728 -4.729,-4.728 l -24.405,0 c -2.607,0 -4.728,2.121 -4.728,4.728 l 0,15.46 c 0,2.607 2.121,4.728 4.728,4.728 l 24.405,0 z m -27.22,-4.729 0,-15.46 c 0,-1.552 1.263,-2.815 2.815,-2.815 l 24.405,0 c 1.552,0 2.816,1.263 2.816,2.815 l 0,15.46 c 0,1.552 -1.264,2.815 -2.816,2.815 l -24.405,0 C 31.333,54.619 30.07,53.356 30.07,51.803 Z" />
        <path
           inkscape:connector-curvature="0"
           id="path25"
           d="m 91.914,29.33 -1.069,1.587 c 1.404,0.944 2.242,2.538 2.242,4.264 0,2.815 -2.207,5.105 -4.92,5.105 -2.716,0 -4.926,-2.29 -4.926,-5.105 0,-1.726 0.838,-3.319 2.242,-4.264 L 84.414,29.33 c -1.933,1.3 -3.086,3.487 -3.086,5.851 0,3.534 2.562,6.459 5.879,6.94 l 0,8.483 c 0,2.162 -1.694,3.922 -3.777,3.922 l -6.865,0 0,-21.898 c 0,-4.432 -3.606,-8.038 -8.038,-8.038 l -17.57,0 0,-5.358 c 2.339,-0.448 4.109,-2.499 4.109,-4.969 0,-2.798 -2.268,-5.065 -5.065,-5.065 -2.797,0 -5.065,2.268 -5.065,5.065 0,2.47 1.77,4.521 4.109,4.969 l 0,5.358 -17.57,0 c -4.432,0 -8.038,3.606 -8.038,8.038 l 0,16.863 0,5.036 -6.867,0 c -2.083,0 -3.778,-1.759 -3.778,-3.922 l 0,-8.433 0,-0.05 c 3.317,-0.481 5.88,-3.406 5.88,-6.94 0,-2.363 -1.154,-4.55 -3.086,-5.851 l -0.534,0.793 -0.534,0.794 c 1.404,0.944 2.242,2.538 2.242,4.264 0,2.815 -2.21,5.105 -4.926,5.105 -2.713,0 -4.92,-2.29 -4.92,-5.105 0,-1.726 0.838,-3.319 2.242,-4.264 L 8.62,30.124 8.086,29.33 C 6.154,30.631 5,32.818 5,35.181 c 0,3.536 2.562,6.462 5.879,6.941 l 0,8.482 c 0,3.217 2.553,5.835 5.691,5.835 l 6.865,0 0,15.624 -2.21,0 c -5.166,0 -9.37,4.203 -9.37,9.37 0,5.166 4.203,9.37 9.37,9.37 l 9.418,0 38.712,0 9.418,0 c 5.166,0 9.37,-4.203 9.37,-9.37 0,-5.166 -4.203,-9.37 -9.37,-9.37 l -2.21,0 0,-15.624 6.865,0 c 3.137,0 5.69,-2.617 5.69,-5.835 l 0,-8.482 c 3.317,-0.479 5.88,-3.405 5.88,-6.941 C 95,32.818 93.846,30.631 91.914,29.33 Z m -66.565,3.298 c 0,-3.377 2.747,-6.125 6.125,-6.125 l 34.015,0 0,45.56 -34.845,0 -5.295,0 0,-39.435 z m 51.464,48.805 c 0,4.112 -3.345,7.457 -7.457,7.457 l -38.712,0 -9.418,0 c -4.112,0 -7.457,-3.345 -7.457,-7.457 0,-4.112 3.345,-7.457 7.457,-7.457 l 9.418,0 38.712,0 c 4.112,0 7.457,3.345 7.457,7.457 z" />
        <path
           inkscape:connector-curvature="0"
           id="path27"
           d="m 24.429,76.678 c -2.622,0 -4.754,2.133 -4.754,4.755 0,2.622 2.132,4.755 4.754,4.755 2.622,0 4.755,-2.133 4.755,-4.755 0,-2.622 -2.133,-4.755 -4.755,-4.755 z m 0,7.597 c -1.566,0 -2.841,-1.275 -2.841,-2.842 0,-1.567 1.275,-2.842 2.841,-2.842 1.567,0 2.842,1.275 2.842,2.842 0,1.567 -1.275,2.842 -2.842,2.842 z" />
        <path
           inkscape:connector-curvature="0"
           id="path29"
           d="m 64.217,76.678 c -2.622,0 -4.755,2.133 -4.755,4.755 0,2.622 2.133,4.755 4.755,4.755 2.622,0 4.754,-2.133 4.754,-4.755 0,-2.622 -2.132,-4.755 -4.754,-4.755 z m 0,7.597 c -1.567,0 -2.842,-1.275 -2.842,-2.842 0,-1.567 1.275,-2.842 2.842,-2.842 1.566,0 2.841,1.275 2.841,2.842 0,1.567 -1.275,2.842 -2.841,2.842 z" />
        <path
           inkscape:connector-curvature="0"
           id="path31"
           d="m 44.323,76.678 c -2.622,0 -4.755,2.133 -4.755,4.755 0,2.622 2.133,4.755 4.755,4.755 2.622,0 4.755,-2.133 4.755,-4.755 0,-2.622 -2.133,-4.755 -4.755,-4.755 z m 0,7.597 c -1.567,0 -2.842,-1.275 -2.842,-2.842 0,-1.567 1.275,-2.842 2.842,-2.842 1.567,0 2.842,1.275 2.842,2.842 0,1.567 -1.275,2.842 -2.842,2.842 z" />
      </g>
    </g>
  </g>
</svg>
